<svg xmlns="http://www.w3.org/2000/svg" xmlns:cc="http://web.resource.org/cc/" xmlns:svg="http://www.w3.org/2000/svg" xmlns:xlink="http://www.w3.org/1999/xlink" id="svg4639" width="16" height="16" version="1.0"><defs id="defs4641"><linearGradient id="linearGradient2889"><stop id="stop2891" offset="0" stop-color="#888a85" stop-opacity="1"/><stop id="stop2893" offset="1" stop-color="#555753" stop-opacity="1"/></linearGradient><linearGradient id="linearGradient2881"><stop id="stop2883" offset="0" stop-color="#fff" stop-opacity="1"/><stop id="stop2885" offset="1" stop-color="#eeeeec" stop-opacity="1"/></linearGradient><linearGradient id="linearGradient2853"><stop id="stop2855" offset="0" stop-color="#fff" stop-opacity="1"/><stop id="stop2857" offset="1" stop-color="#fff" stop-opacity="0"/></linearGradient><linearGradient id="linearGradient5631"><stop id="stop5633" offset="0" stop-color="#fff" stop-opacity="1"/><stop id="stop5635" offset="1" stop-color="#729fcf" stop-opacity="1"/></linearGradient><linearGradient id="linearGradient8163"><stop id="stop8165" offset="0" stop-color="#bad0e8" stop-opacity="1"/><stop id="stop8167" offset="1" stop-color="#7fa9d5" stop-opacity="1"/></linearGradient><radialGradient id="radialGradient4666" cx="5.913" cy="9.093" r="6.605" fx="5.913" fy="9.093" gradientTransform="matrix(0.941673,0,0,0.792865,0.946634,3.041907)" gradientUnits="userSpaceOnUse" xlink:href="#linearGradient8163"/><linearGradient id="linearGradient5637" x1="7.5" x2="7.5" y1="8.883" y2="-.798" gradientUnits="userSpaceOnUse" xlink:href="#linearGradient5631"/><radialGradient id="radialGradient2861" cx="4.915" cy="5.133" r="5" fx="4.915" fy="5.133" gradientTransform="matrix(1.925041,0,1.17341e-7,1.382998,-4.336128,-1.661216)" gradientUnits="userSpaceOnUse" xlink:href="#linearGradient2853"/><linearGradient id="linearGradient2887" x1="2.848" x2="7.023" y1="1.379" y2="10.952" gradientUnits="userSpaceOnUse" xlink:href="#linearGradient2881"/><linearGradient id="linearGradient2895" x1="7.44" x2="10.729" y1=".799" y2="13.712" gradientUnits="userSpaceOnUse" xlink:href="#linearGradient2889"/></defs><metadata id="metadata4644"/><g id="layer1" display="inline"><rect id="rect4613" width="16" height="16" x="0" y="-.108" fill="#fff" fill-opacity="0" stroke="none" stroke-dasharray="none" stroke-dashoffset="0" stroke-linecap="round" stroke-linejoin="miter" stroke-miterlimit="4" stroke-opacity="1" stroke-width="1"/><rect id="rect4615" width="1.988" height="3" x="-.974" y="14.202" fill="#525655" fill-opacity="1" stroke="none" stroke-dasharray="none" stroke-dashoffset="0" stroke-linecap="round" stroke-linejoin="miter" stroke-miterlimit="4" stroke-opacity="1" stroke-width="1" transform="matrix(0.707107,-0.707107,0.707107,0.707107,0,0)"/><rect id="rect4617" width="2.866" height="4.438" x="-1.463" y="16.878" fill="#d3d7cf" fill-opacity="1" stroke="#2e3436" stroke-dasharray="none" stroke-dashoffset="0" stroke-linecap="round" stroke-linejoin="miter" stroke-miterlimit="4" stroke-opacity="1" stroke-width="1" rx="1.35" ry="1.454" transform="matrix(0.708405,-0.705806,0.708405,0.705806,0,0)"/><path id="path4619" fill="none" fill-rule="evenodd" stroke="#525655" stroke-linecap="round" stroke-linejoin="miter" stroke-opacity="1" stroke-width="1" d="M 11.128133,11.108613 L 14.215547,14.196027"/><path id="path4621" fill="#fff" fill-opacity="0" stroke="url(#linearGradient2895)" stroke-dasharray="none" stroke-dashoffset="0" stroke-linecap="round" stroke-linejoin="miter" stroke-miterlimit="4" stroke-opacity="1" stroke-width=".962" d="M 12.487086 5.6153316 A 5.9727769 5.415318 0 1 1 0.54153204,5.6153316 A 5.9727769 5.415318 0 1 1 12.487086 5.6153316 z" transform="matrix(1.088272,0,0,1.200299,-8.933437e-2,0.259922)"/><path id="path4623" fill="url(#radialGradient4666)" fill-opacity="1" stroke="url(#linearGradient2887)" stroke-dasharray="none" stroke-dashoffset="0" stroke-linecap="round" stroke-linejoin="miter" stroke-miterlimit="4" stroke-opacity="1" stroke-width="1.034" d="M 12.487086 5.6153316 A 5.9727769 5.415318 0 1 1 0.54153204,5.6153316 A 5.9727769 5.415318 0 1 1 12.487086 5.6153316 z" opacity="1" transform="matrix(0.920843,0,0,1.015635,1.001354,1.29686)"/><rect id="rect1928" width="1" height="1" x="12" y="12" fill="#999" fill-opacity="1" stroke="none" stroke-dasharray="none" stroke-dashoffset="0" stroke-linecap="round" stroke-linejoin="round" stroke-miterlimit="4" stroke-opacity="1" stroke-width="1.2" opacity="1"/><path id="path2847" fill="url(#radialGradient2861)" fill-opacity="1" stroke="none" stroke-dasharray="none" stroke-dashoffset="0" stroke-linecap="round" stroke-linejoin="miter" stroke-miterlimit="4" stroke-opacity="1" stroke-width="1.034" d="M 7,2 C 4.2399952,2 2.0000001,4.2399964 2,7 C 3,10.521525 8,3.5447287 12,7 C 12,4.2399964 9.7600047,2 7,2 z" display="inline" opacity=".5"/></g><g id="layer8" display="inline"><g id="g4561" transform="matrix(0,1,-1,0,14,0)"><g id="g5768" opacity=".8"><path id="path5760" fill="#fff" fill-opacity="1" fill-rule="evenodd" stroke="#729fcf" stroke-dasharray="none" stroke-linecap="butt" stroke-linejoin="round" stroke-miterlimit="4" stroke-opacity="1" stroke-width="1.5" d="M 5,4 L 2,7 L 5,10 L 5,4 z M 9,4 L 9,10 L 12,7 L 9,4 z" display="inline"/><rect id="rect5752" width="4" height="4" x="5" y="5" fill="#729fcf" fill-opacity="1" stroke="none" stroke-dasharray="none" stroke-dashoffset="0" stroke-linecap="round" stroke-linejoin="miter" stroke-miterlimit="4" stroke-opacity="1" stroke-width="1" display="inline" opacity="1" rx="0" ry="0"/></g><rect id="rect5754" width="6" height="2" x="4" y="6" fill="#fff" fill-opacity="1" stroke="none" stroke-dasharray="none" stroke-dashoffset="0" stroke-linecap="round" stroke-linejoin="miter" stroke-miterlimit="4" stroke-opacity="1" stroke-width="1" display="inline" rx="0" ry="0"/><path id="path5756" fill="#fff" fill-opacity="1" fill-rule="evenodd" stroke="none" stroke-linecap="butt" stroke-linejoin="miter" stroke-opacity="1" stroke-width="1" d="M 5,4 L 2,7 L 5,10 L 5,4"/><path id="path5758" fill="#fff" fill-opacity="1" fill-rule="evenodd" stroke="none" stroke-linecap="butt" stroke-linejoin="miter" stroke-opacity="1" stroke-width="1" d="M 9,4 L 12,7 L 9,10 L 9,4" display="inline"/></g></g></svg>