<svg xmlns="http://www.w3.org/2000/svg" xmlns:svg="http://www.w3.org/2000/svg" xmlns:xlink="http://www.w3.org/1999/xlink" id="svg11300" width="48" height="48" version="1.1"><defs id="defs3"><linearGradient id="linearGradient3507"><stop id="stop3509" offset="0" stop-color="#000" stop-opacity="1"/><stop id="stop3511" offset="1" stop-color="#000" stop-opacity="0"/></linearGradient><linearGradient id="linearGradient3497"><stop id="stop3499" offset="0" stop-color="#fff" stop-opacity="1"/><stop id="stop3501" offset="1" stop-color="#fff" stop-opacity=".567"/></linearGradient><linearGradient id="linearGradient4598"><stop id="stop4600" offset="0" stop-color="#e6eef7" stop-opacity="1"/><stop id="stop4602" offset="1" stop-color="#8ab0d8" stop-opacity="1"/></linearGradient><linearGradient id="linearGradient4590"><stop id="stop4592" offset="0" stop-color="#c00" stop-opacity="1"/><stop id="stop4594" offset="1" stop-color="#ffa2a2" stop-opacity="1"/></linearGradient><linearGradient id="linearGradient4582"><stop id="stop4584" offset="0" stop-color="#000" stop-opacity="1"/><stop id="stop4586" offset="1" stop-color="#000" stop-opacity="0"/></linearGradient><linearGradient id="linearGradient4570"><stop id="stop4572" offset="0" stop-color="#eceeea" stop-opacity="1"/><stop id="stop4574" offset="1" stop-color="#d3d7cf" stop-opacity="1"/></linearGradient><linearGradient id="linearGradient11520"><stop id="stop11522" offset="0" stop-color="#fff" stop-opacity="1"/><stop id="stop11524" offset="1" stop-color="#dcdcdc" stop-opacity="1"/></linearGradient><linearGradient id="linearGradient11508"><stop id="stop11510" offset="0" stop-color="#000" stop-opacity="1"/><stop id="stop11512" offset="1" stop-color="#000" stop-opacity="0"/></linearGradient><linearGradient id="linearGradient11494"><stop id="stop11496" offset="0" stop-color="#ef2929" stop-opacity="1"/><stop id="stop11498" offset="1" stop-color="#ef2929" stop-opacity="0"/></linearGradient><linearGradient id="linearGradient11415"><stop id="stop11417" offset="0" stop-color="#204a87" stop-opacity="0"/><stop id="stop11423" offset=".5" stop-color="#204a87" stop-opacity="1"/><stop id="stop11419" offset="1" stop-color="#204a87" stop-opacity="0"/></linearGradient><linearGradient id="linearGradient11399"><stop id="stop11401" offset="0" stop-color="#000" stop-opacity="1"/><stop id="stop11403" offset="1" stop-color="#000" stop-opacity="0"/></linearGradient><linearGradient id="linearGradient11425" x1="15.828" x2="43.616" y1="3.774" y2="34.462" gradientTransform="translate(-60.28571,-0.285714)" gradientUnits="userSpaceOnUse" xlink:href="#linearGradient11415"/><linearGradient id="linearGradient11427" x1="9.696" x2="35.68" y1="9.346" y2="39.034" gradientTransform="translate(-60.57143,0.000000)" gradientUnits="userSpaceOnUse" xlink:href="#linearGradient11415"/><linearGradient id="linearGradient11439" x1="13.267" x2="26.759" y1="19.774" y2="33.462" gradientTransform="translate(-60.85714,0.428571)" gradientUnits="userSpaceOnUse" xlink:href="#linearGradient11415"/><radialGradient id="radialGradient11441" cx="12.071" cy="39.143" r="8.5" fx="12.071" fy="39.143" gradientTransform="matrix(1.000000,0.000000,0.000000,0.487395,0.000000,20.06483)" gradientUnits="userSpaceOnUse" xlink:href="#linearGradient11399"/><radialGradient id="radialGradient11500" cx="27.577" cy="15.048" r="3.834" fx="27.577" fy="15.048" gradientTransform="matrix(1.243453,2.106784e-16,-2.106784e-16,1.243453,-6.713754,-3.742847)" gradientUnits="userSpaceOnUse" xlink:href="#linearGradient11494"/><radialGradient id="radialGradient11504" cx="27.577" cy="16.049" r="3.834" fx="27.577" fy="16.049" gradientTransform="matrix(1.243453,2.106784e-16,-2.106784e-16,1.243453,-6.713754,-3.742847)" gradientUnits="userSpaceOnUse" xlink:href="#linearGradient11494"/><radialGradient id="radialGradient11514" cx="30.204" cy="44.565" r="6.566" fx="30.204" fy="44.565" gradientTransform="matrix(1.000000,0.000000,0.000000,0.338462,2.166583e-14,29.48178)" gradientUnits="userSpaceOnUse" xlink:href="#linearGradient11508"/><radialGradient id="radialGradient11526" cx="24.446" cy="35.878" r="20.531" fx="24.446" fy="35.878" gradientTransform="matrix(1.995058,-1.651527e-32,0.000000,1.995058,-24.32488,-35.70087)" gradientUnits="userSpaceOnUse" xlink:href="#linearGradient11520"/><radialGradient id="radialGradient11532" cx="30.204" cy="44.565" r="6.566" fx="30.204" fy="44.565" gradientTransform="matrix(1.000000,0.000000,0.000000,0.338462,3.185827e-15,29.48178)" gradientUnits="userSpaceOnUse" xlink:href="#linearGradient11508"/><radialGradient id="radialGradient1348" cx="30.204" cy="44.565" r="6.566" fx="30.204" fy="44.565" gradientTransform="matrix(1.000000,0.000000,0.000000,0.338462,-1.353344e-14,29.48178)" gradientUnits="userSpaceOnUse" xlink:href="#linearGradient11508"/><radialGradient id="radialGradient1350" cx="24.446" cy="35.878" r="20.531" fx="24.446" fy="35.878" gradientTransform="matrix(1.995058,-1.651527e-32,0.000000,1.995058,-24.32488,-35.70087)" gradientUnits="userSpaceOnUse" xlink:href="#linearGradient11520"/><radialGradient id="radialGradient1352" cx="27.577" cy="16.049" r="3.834" fx="27.577" fy="16.049" gradientTransform="matrix(1.243453,2.106784e-16,-2.106784e-16,1.243453,-6.713754,-3.742847)" gradientUnits="userSpaceOnUse" xlink:href="#linearGradient11494"/><radialGradient id="radialGradient1354" cx="27.577" cy="15.048" r="3.834" fx="27.577" fy="15.048" gradientTransform="matrix(1.243453,2.106784e-16,-2.106784e-16,1.243453,-6.713754,-3.742847)" gradientUnits="userSpaceOnUse" xlink:href="#linearGradient11494"/><radialGradient id="radialGradient1356" cx="30.204" cy="44.565" r="6.566" fx="30.204" fy="44.565" gradientTransform="matrix(1.000000,0.000000,0.000000,0.338462,2.220359e-14,29.48178)" gradientUnits="userSpaceOnUse" xlink:href="#linearGradient11508"/><radialGradient id="radialGradient1366" cx="24.446" cy="35.878" r="20.531" fx="24.446" fy="35.878" gradientTransform="matrix(2.049266,-1.696401e-32,0.000000,2.049266,-25.65002,-37.31089)" gradientUnits="userSpaceOnUse" xlink:href="#linearGradient11520"/><radialGradient id="radialGradient4588" cx="24.625" cy="38.625" r="21.125" fx="24.625" fy="38.625" gradientTransform="matrix(1,0,0,0.420118,0,22.39793)" gradientUnits="userSpaceOnUse" xlink:href="#linearGradient4582"/><radialGradient id="radialGradient4604" cx="24.502" cy="12.605" r="20.508" fx="24.502" fy="12.605" gradientTransform="matrix(2.319263,1.846486e-24,-3.426469e-24,2.374685,-32.32511,-17.59985)" gradientUnits="userSpaceOnUse" xlink:href="#linearGradient4598"/><radialGradient id="radialGradient3513" cx="25.986" cy="26.787" r="15.465" fx="25.986" fy="26.787" gradientTransform="matrix(0.863137,0,0,0.438896,3.556549,15.03019)" gradientUnits="userSpaceOnUse" xlink:href="#linearGradient3507"/></defs><metadata id="metadata4"/><g id="layer1"><path id="path4580" fill="url(#radialGradient4588)" fill-opacity="1" fill-rule="nonzero" stroke="none" stroke-dasharray="none" stroke-dashoffset="0" stroke-linecap="butt" stroke-linejoin="miter" stroke-miterlimit="10" stroke-opacity="1" stroke-width="1" marker-end="none" marker-mid="none" marker-start="none" d="M 45.75 38.625 A 21.125 8.875 0 1 1 3.5,38.625 A 21.125 8.875 0 1 1 45.75 38.625 z" color="#000" display="inline" opacity="1" overflow="visible" visibility="visible" style="marker:none"/><rect id="rect2362" width="40.015" height="40.996" x="4.495" y="3.502" fill="url(#radialGradient4604)" fill-opacity="1" fill-rule="evenodd" stroke="#3465a4" stroke-dasharray="none" stroke-dashoffset="0" stroke-linecap="butt" stroke-linejoin="miter" stroke-miterlimit="10" stroke-opacity="1" stroke-width="1" marker-end="none" marker-mid="none" marker-start="none" color="#000" display="inline" opacity="1" overflow="visible" rx="5.25" ry="5.25" visibility="visible" style="marker:none"/><rect id="rect4578" width="38.017" height="38.996" x="5.489" y="4.501" fill="none" fill-opacity="1" fill-rule="evenodd" stroke="#fff" stroke-dasharray="none" stroke-dashoffset="0" stroke-linecap="butt" stroke-linejoin="miter" stroke-miterlimit="10" stroke-opacity="1" stroke-width="1" marker-end="none" marker-mid="none" marker-start="none" color="#000" display="inline" opacity="1" overflow="visible" rx="4.189" ry="4.189" visibility="visible" style="marker:none"/><path id="path3505" fill="url(#radialGradient3513)" fill-opacity="1" fill-rule="nonzero" stroke="none" stroke-dasharray="none" stroke-dashoffset="0" stroke-linecap="round" stroke-linejoin="round" stroke-miterlimit="20" stroke-opacity="1" stroke-width="3" marker-end="none" marker-mid="none" marker-start="none" d="M 39.951532 26.786797 A 13.965359 6.3639612 0 1 1 12.020815,26.786797 A 13.965359 6.3639612 0 1 1 39.951532 26.786797 z" color="#000" display="inline" opacity=".335" overflow="visible" transform="matrix(1.341772,0,0,0.722222,-10.47234,10.2692)" visibility="visible" style="marker:none"/><rect stroke-linejoin="miter" style="marker:none" id="rect4626" width="28" height="1" x="10" y="35" fill="#000" fill-opacity="1" fill-rule="nonzero" stroke="none" stroke-dasharray="none" stroke-dashoffset="0" stroke-linecap="butt" stroke-miterlimit="10" stroke-opacity="1" stroke-width="1" marker-end="none" marker-mid="none" marker-start="none" color="#000" display="inline" opacity=".335" overflow="visible" visibility="visible"/><rect id="rect4628" width="28" height="1" x="10" y="37" fill="#000" fill-opacity="1" fill-rule="nonzero" stroke="none" stroke-dasharray="none" stroke-dashoffset="0" stroke-linecap="butt" stroke-linejoin="miter" stroke-miterlimit="10" stroke-opacity="1" stroke-width="1" marker-end="none" marker-mid="none" marker-start="none" color="#000" display="inline" opacity=".335" overflow="visible" visibility="visible" style="marker:none"/><rect stroke-linejoin="miter" style="marker:none" id="rect4630" width="18" height="1" x="10" y="39" fill="#000" fill-opacity="1" fill-rule="nonzero" stroke="none" stroke-dasharray="none" stroke-dashoffset="0" stroke-linecap="butt" stroke-miterlimit="10" stroke-opacity="1" stroke-width="1" marker-end="none" marker-mid="none" marker-start="none" color="#000" display="inline" opacity=".335" overflow="visible" visibility="visible"/><path id="path4004" fill="#f9f9f9" d="m 23.375,5.125 c -1.489846,3.3187962 -3.668353,6.252687 -5.436237,9.419584 -2.028309,3.391303 -5.403881,5.608638 -8.190735,8.312747 -1.2579412,1.121284 -2.6306351,2.124275 -3.779278,3.361419 1.4719959,0.6873 3.3220735,-0.16992 4.737495,-0.788334 0.76573,-0.294682 1.622404,-1.514715 0.351952,-0.375602 -1.7773942,1.816151 -3.5261474,3.754004 -4.6887365,6.030194 -0.2880248,1.83598 2.2202039,-0.168154 2.9167985,-0.661793 3.358285,-2.552223 6.173267,-5.925918 10.09388,-7.665427 1.813712,-1.137102 2.87452,0.4801 3.580381,1.936709 1.25166,1.984494 2.603634,4.022031 4.707794,5.18553 1.568549,0.743272 3.437199,0.543366 5.106163,0.306251 3.82807,-1.007389 7.58449,-3.046055 9.907091,-6.329694 1.465203,-2.577509 0.734133,-5.625833 0.579047,-8.427827 -0.05562,-0.663752 -0.111243,-1.327505 -0.166865,-1.991257 -1.14887,2.019091 -2.116948,4.192445 -3.880078,5.77643 -2.596544,2.374106 -5.255393,5.189578 -8.925803,5.699269 -1.618318,0.707079 -3.930783,-0.557176 -3.583448,-2.427615 0.794106,-1.580892 2.686304,-2.083074 4.089345,-2.987393 3.812227,-2.251026 8.005597,-4.211927 10.775291,-7.800443 1.094202,-1.165047 1.892096,-2.5972169 1.339007,-4.2159135 C 42.362495,6.2498575 40.96748,4.5777444 39.926359,6.3321299 36.690047,9.3375376 33.001662,11.800833 29.530062,14.519707 28.341716,15.103781 26.27873,17.417099 25.19625,16.074692 24.423368,12.546765 24.782284,8.8175173 23.634664,5.3617823 23.579925,5.2842176 23.518923,5.077554 23.375,5.125 z m -18.25,1.5 c -0.2376887,0.4208594 -0.056889,0.5792559 0,0 z m 16.75,7.141085 c 0.08313,1.276034 0.132826,2.584841 -0.51141,3.751758 -0.282349,0.803933 -3.10261,3.176408 -2.317511,0.956628 C 19.74301,16.75861 20.805885,15.261187 21.875,13.766085 z M 5.4375,34.9375 c 0.049944,0.320012 0.119638,0.0016 0,0 z"/><path id="path3185" fill="#d40000" d="m 23.446926,5.324702 c -0.05803,0.02792 -1.083302,2.79292 -2.591529,5.52811 -3.619099,6.563279 -5.916437,9.436086 -9.627221,11.90939 -1.605515,1.070104 -4.13239,2.418999 -4.6875,3.15625 -0.527833,0.701026 -0.205185,0.271324 1.937501,-0.34375 5.349182,-1.535523 4.951187,-2.755607 0.90625,2.09375 -5.509977,6.605748 -2.739342,4.553963 3.031249,-0.84375 2.645975,-2.475 5.531323,-4.211296 6.28125,-4.5 0.803579,-0.309359 1.309934,-0.525071 2.3125,-0.59375 1.18719,-0.08133 1.871595,0.03893 2.3125,1.34375 0.375,1.109782 1.223912,3.133862 2.5625,4.71875 0.541817,0.641511 1.022559,0.950541 1.515169,1.256855 0.454572,0.282662 0.914611,0.581572 1.549044,0.709406 1.266001,0.280035 2.111337,0.137369 2.998287,0.09624 1.900797,-0.113141 5.130246,-1.84618 7.34375,-3.625 3.5415,-2.846027 4.01491,-3.71989 3.96875,-7.3125 l -0.03125,-4.09375 -1.6875,2.499999 c -3.628513,5.406845 -7.976047,9 -10.90625,9 -6.477527,0 -7.33935,-5.001815 -1.1875,-7.53125 5.30913,-2.182936 11.940914,-6.564891 13.625,-9.3125 0.0039,-0.205612 -0.0054,-0.42849 -0.0078,-0.617188 C 43.022446,8.222339 42.872658,7.735435 42.662007,7.244692 42.415583,6.743372 41.974224,6.404276 41.610988,6.070795 41.280106,5.838586 41.08199,5.706107 40.833645,5.730951 c -0.31503,0.106598 -0.443532,0.270701 -0.542969,0.5625 -0.788439,2.313685 -12.483563,11.500001 -15.5625,11.500001 -0.296911,0 -0.416384,-2.358664 -0.671415,-5.924555 C 23.791596,8.161313 23.88497,5.113914 23.446926,5.324702 z m -1.3125,7.578586 0.25,2.858914 c -0.04734,1.881061 -1.088625,2.947661 -2.239277,3.429917 -1.142287,0.478752 -2.266288,1.297745 -2.162487,0.01837 0.05493,-0.676996 1.076523,-1.756714 2.302652,-3.4849 z m -16.6875,21.921414 c 0.0143,0.03861 0.04626,0.08707 0.0625,0.125 -0.0014,-0.01987 0.0014,-0.04258 0,-0.0625 -0.0028,0.0103 -0.03339,2.21e-4 -0.0625,-0.0625 z"/></g></svg>